<svg xmlns="http://www.w3.org/2000/svg" viewBox="0 0 64 64">
  <defs>
    <linearGradient id="grad" x1="0%" y1="0%" x2="100%" y2="100%">
      <stop offset="0%" style="stop-color:#40A9FF;stop-opacity:1" />
      <stop offset="100%" style="stop-color:#FF7A45;stop-opacity:1" />
    </linearGradient>
  </defs>
  <circle cx="32" cy="32" r="30" fill="url(#grad)"/>
  <path d="M32 16c-8.8 0-16 7.2-16 16s7.2 16 16 16 16-7.2 16-16-7.2-16-16-16zm0 28c-6.6 0-12-5.4-12-12s5.4-12 12-12 12 5.4 12 12-5.4 12-12 12z" fill="white"/>
  <circle cx="26" cy="29" r="2" fill="white"/>
  <circle cx="38" cy="29" r="2" fill="white"/>
  <path d="M32 42c4 0 7-3 7-3H25s3 3 7 3z" fill="white"/>
</svg>
